<svg width="50" height="45" viewBox="0 0 50 45" fill="none" xmlns="http://www.w3.org/2000/svg">
<g clip-path="url(#clip0_71_229)">
<path d="M22.7735 7.79044C24.6184 7.29843 26.5831 7.55871 28.2366 8.51342C29.8902 9.46815 31.098 11.0393 31.5943 12.8831L31.6854 13.2571C32.5349 17.1352 30.605 21.4384 28.258 24.9458C25.8546 28.5371 23.1133 31.1471 22.8997 31.3455L22.8972 31.3473C22.8378 31.4031 22.7659 31.4441 22.6871 31.4652C22.6083 31.4863 22.5248 31.4871 22.4453 31.4683L22.4422 31.4681L21.6426 31.2608C20.3063 30.8936 17.5104 30.0359 14.6029 28.6046C10.6945 26.6805 6.74709 23.7998 5.68224 19.8262L5.59847 19.4797C5.22489 17.7374 5.51007 15.9136 6.40522 14.3631C7.30037 12.8127 8.73725 11.6538 10.4329 11.1062L10.7749 11.0055C13.1113 10.3795 15.4013 10.8402 17.1038 12.1748L17.6285 12.5863L17.8763 11.9678C18.6329 10.0858 20.2216 8.61087 22.3427 7.91802L22.7735 7.79044Z" fill="#730DC4" stroke="transparent" stroke-width="1.5"/>
</g>
<g clip-path="url(#clip1_71_229)">
<path d="M41.8255 14.0572C43.6693 14.5535 45.2405 15.7613 46.1952 17.4148C47.1499 19.0685 47.4102 21.033 46.9182 22.878L46.8101 23.2473C45.6068 27.0306 41.7838 29.7924 37.9975 31.6563C34.1205 33.5649 30.4414 34.4545 30.1572 34.5196L30.1542 34.5198C30.0748 34.5385 29.992 34.538 29.9133 34.5169C29.8344 34.4958 29.7618 34.4547 29.7023 34.3987L29.6997 34.397L29.1109 33.8176C28.1372 32.8315 26.1448 30.6907 24.3425 27.9975C21.9197 24.377 19.9415 19.9084 21.0061 15.9348L21.1068 15.5928C21.6545 13.8972 22.8133 12.4603 24.3638 11.5651C25.9142 10.67 27.738 10.3848 29.4803 10.7584L29.8269 10.8421C32.1632 11.4683 33.9161 13.0122 34.7232 15.0193L34.9719 15.638L35.4957 15.2263C37.0919 13.9747 39.2053 13.4917 41.3886 13.9522L41.8255 14.0572Z" fill="#E63AB3" stroke="transparent" stroke-width="1.5"/>
</g>
</svg>
