<?xml version="1.0" standalone="no"?>
<svg xmlns="http://www.w3.org/2000/svg" xmlns:xlink="http://www.w3.org/1999/xlink" id="body_1"
  width="50" height="32">
  <g transform="matrix(0.06527415 0 0 0.065789476 0 0)">
    <path transform="matrix(1 0 0 1 0 0)"
      d="M0 0C 252.78 0 505.56 0 766 0C 766 225.72 766 451.44 766 684C 513.22 684 260.44 684 0 684C 0 458.28 0 232.56 0 0z"
      stroke="none" fill="none" fill-rule="nonzero" />
    <path transform="matrix(1 0 0 1 566.67773 159.73926)"
      d="M0 0C 2.0556436 0.01065602 4.1103997 7.859E-05 6.1660156 -0.01269531C 35.49986 -0.0462415 63.338417 7.6332626 86.322266 26.260742C 87.285194 27.040625 88.24812 27.820507 89.240234 28.624023C 109.03381 45.681675 123.04814 71.04511 125.322266 97.26074C 126.633644 118.99372 122.53544 141.48454 109.322266 159.26074C 108.69321 160.11023 108.06414 160.95973 107.416016 161.83496C 87.5129 187.62213 57.596687 203.03319 25.711914 207.85352C -23.99598 213.82533 -74.35197 194.77254 -117.677734 172.26074C -114.1619 171.08879 -112.53679 171.48317 -108.927734 172.18652C -107.772896 172.40543 -106.61806 172.62433 -105.42822 172.84985C -104.19056 173.08858 -102.9529 173.32729 -101.677734 173.57324C -71.38056 179.11597 -39.08517 181.6527 -8.677734 175.26074C -7.5588284 175.04417 -6.439922 174.82762 -5.2871094 174.60449C 14.652162 170.21994 33.53382 160.15854 45.853516 143.59668C 52.03205 133.77017 53.151646 123.62214 52.322266 112.26074C 50.2355 103.35145 46.024208 96.4723 39.322266 90.26074C 38.621017 89.60074 37.919765 88.94074 37.197266 88.26074C 23.468803 78.71051 6.822647 77.340454 -9.291016 80.1709C -34.43822 85.080154 -56.91169 96.41642 -77.677734 111.26074C -78.28246 111.688225 -78.8872 112.115715 -79.510254 112.55615C -89.58057 119.69557 -99.19846 127.35815 -108.677734 135.26074C -109.279724 135.76219 -109.88172 136.26363 -110.50195 136.78027C -125.10923 149.00137 -138.7013 162.19269 -152.17773 175.63574C -152.79224 176.24756 -153.40674 176.85939 -154.03986 177.48975C -160.4749 183.90352 -166.80202 190.32326 -172.67773 197.26074C -174.13219 198.86842 -175.58995 200.47314 -177.05273 202.07324C -180.8958 206.33684 -184.57097 210.70627 -188.17773 215.1709C -189.99777 217.42035 -191.82993 219.65549 -193.67773 221.88184C -201.24399 231.03462 -208.31247 240.46222 -215.17725 250.15039C -216.57391 252.11473 -217.9836 254.0687 -219.40039 256.01855C -225.12592 263.9166 -230.48306 272.00446 -235.67773 280.26074C -237.44788 276.09604 -235.76509 272.43625 -234.42383 268.38574C -234.17229 267.60178 -233.92073 266.81778 -233.66156 266.01004C -232.82559 263.42258 -231.97205 260.8414 -231.11523 258.26074C -230.82219 257.37006 -230.52913 256.47937 -230.2272 255.56168C -212.65004 202.24602 -189.85779 149.48538 -157.67773 103.26074C -157.26427 102.66326 -156.8508 102.06578 -156.4248 101.450195C -150.85028 93.42047 -144.98944 85.73238 -138.67773 78.26074C -137.7454 77.152695 -136.81313 76.04462 -135.88086 74.93652C -133.986 72.68772 -132.08456 70.444725 -130.17773 68.206055C -128.74934 66.52323 -127.327866 64.83434 -125.927734 63.12793C -122.8218 59.36367 -119.44631 56.216576 -115.72461 53.061523C -113.71903 51.297073 -111.89506 49.443607 -110.052734 47.510742C -87.268295 24.504234 -56.193577 8.743634 -24.677734 2.2607422C -23.901718 2.0841405 -23.125704 1.907539 -22.326172 1.7255859C -14.891065 0.16554105 -7.5699797 -0.04646352 0 0z"
      stroke="none" fill="#6B2D96" fill-rule="nonzero" />
    <path transform="matrix(1 0 0 1 430 103)"
      d="M0 0C 1.2795076 2.5590153 0.81617403 3.216825 -0.04125977 5.894287C -0.29700273 6.7034206 -0.55274564 7.512554 -0.8162384 8.346207C -1.1050438 9.230982 -1.3938491 10.115757 -1.6914062 11.027344C -2.135793 12.412575 -2.135793 12.412575 -2.589157 13.82579C -3.5700166 16.866467 -4.564668 19.902353 -5.5625 22.9375C -5.9012413 23.973202 -6.239983 25.008904 -6.5889893 26.075989C -15.383497 52.882416 -25.664404 78.92411 -37.776855 104.40967C -38.947956 106.88978 -40.089798 109.381134 -41.222656 111.87891C -47.07251 124.679436 -53.91424 136.84789 -61 149C -61.51498 149.8893 -62.02996 150.77858 -62.560547 151.69482C -75.36857 173.75446 -90.095215 194.90205 -107.63672 213.48438C -109.59073 215.56435 -111.42898 217.68056 -113.25 219.875C -140.86569 251.48253 -181.86107 275.7293 -224 280C -262.13068 282.19995 -297.70425 275.1519 -327.02075 249.64697C -346.88773 231.76193 -359.5376 206.4276 -361.14014 179.65918C -361.62473 167.4551 -360.79694 156.61565 -357 145C -356.47406 143.3255 -356.47406 143.3255 -355.9375 141.61719C -346.97696 115.793365 -324.78287 96.11059 -300.77832 84.29712C -293.05264 80.62474 -285.3081 77.12808 -277 75C -275.84888 74.703514 -274.69772 74.40703 -273.51172 74.10156C -254.83066 69.85079 -233.76576 70.60392 -215 74C -214.27184 74.12359 -213.54369 74.24718 -212.79346 74.37451C -179.18132 80.13121 -148.30803 92.82328 -118 108C -122.10552 109.36851 -125.34095 108.1831 -129.4375 107.25C -170.21825 98.71164 -225.77223 94.311325 -262.46875 118.16406C -263.30408 118.76992 -264.13937 119.37578 -265 120C -265.95908 120.68836 -266.91812 121.37672 -267.90625 122.08594C -278.1089 129.90247 -284.8442 139.43292 -288 152C -289.2681 163.78717 -287.77106 174.1393 -280.78125 183.83594C -273.67572 192.46852 -264.98532 197.67958 -254 200C -219.29013 202.57545 -191.33229 191.35498 -163 172C -162.27232 171.50887 -161.54465 171.01773 -160.79492 170.51172C -150.05688 163.23788 -139.94421 155.3173 -130 147C -129.12602 146.27466 -129.12602 146.27466 -128.23438 145.53467C -121.24833 139.73633 -114.45946 133.76123 -107.80469 127.58594C -105.38016 125.35051 -102.91852 123.17197 -100.4375 121C -95.22373 116.3212 -90.27304 111.38241 -85.3125 106.4375C -84.50418 105.633766 -83.695854 104.83004 -82.86304 104.00195C -78.60287 99.73083 -74.49998 95.3847 -70.56616 90.81128C -68.31582 88.20874 -65.97005 85.70508 -63.625 83.1875C -59.32804 78.53615 -55.2581 73.74925 -51.289062 68.8125C -49.306553 66.376656 -47.27592 63.99327 -45.21924 61.620117C -37.314987 52.461178 -30.16094 42.743977 -23 33C -22.413637 32.203037 -21.827276 31.406075 -21.223145 30.58496C -13.871763 20.567373 -6.7965593 10.4019575 0 0z"
      stroke="none" fill="#EF5932" fill-rule="nonzero" />
    <path transform="matrix(1 0 0 1 215 177)"
      d="M0 0C 0.7281592 0.12358887 1.4563184 0.24717773 2.206543 0.37451172C 35.818672 6.1312084 66.69196 18.823278 97 34C 92.89448 35.368507 89.65905 34.183094 85.5625 33.25C 44.781757 24.711637 -10.772232 20.311325 -47.46875 44.164062C -48.30406 44.76992 -49.139374 45.375782 -50 46C -50.95906 46.68836 -51.918125 47.37672 -52.90625 48.085938C -63.108883 55.90247 -69.84421 65.43292 -73 78C -74.26809 89.78717 -72.77106 100.13929 -65.78125 109.83594C -58.65463 118.494156 -49.99332 123.62523 -39 126C -37.34135 126.14298 -35.678913 126.245415 -34.015625 126.31641C -33.081055 126.3583 -32.146484 126.40019 -31.183594 126.44336C -30.215508 126.48267 -29.247421 126.521996 -28.25 126.5625C -26.774668 126.62727 -26.774668 126.62727 -25.269531 126.69336C -22.846487 126.79922 -20.423344 126.9013 -18 127C -18.66 127.33 -19.32 127.66 -20 128C -20 128.66 -20 129.32 -20 130C -45.865788 134.46707 -80.69961 131.03587 -103 116C -103.33 115.34 -103.66 114.68 -104 114C -105.32179 113.31074 -106.65718 112.64735 -108 112C -110.74642 110.104195 -113.36699 108.04959 -116 106C -116.86432 105.342575 -116.86432 105.342575 -117.74609 104.671875C -121.00998 102.09984 -122.99338 99.61192 -125 96C -125.66 95.67 -126.32 95.34 -127 95C -127 94.01 -127 93.02 -127 92C -127.66 91.67 -128.32 91.34 -129 91C -130 88 -130 88 -131 85C -131.66 84.67 -132.32 84.34 -133 84C -134.03516 82.07422 -134.03516 82.07422 -135.0625 79.6875C -135.4041 78.907616 -135.7457 78.12773 -136.09766 77.32422C -137 75 -137 75 -137.4961 72.89453C -137.97322 70.691124 -137.97322 70.691124 -140 68C -138.83447 52.970753 -123.82231 37.522423 -113 28C -80.82559 1.0829744 -41.036465 -7.426454 0 0z"
      stroke="none" fill="#F17C2A" fill-rule="nonzero" />
    <path transform="matrix(1 0 0 1 660 258)"
      d="M0 0C 7.0743785 6.234166 12.285616 12.859247 17 21C 17.501446 21.768282 18.002892 22.536562 18.519531 23.328125C 20.4145 26.748068 21.582401 30.217077 22.75 33.9375C 22.98332 34.627792 23.21664 35.318085 23.457031 36.029297C 25.27206 41.7624 25.2328 45.577442 22.433594 51.078125C 4.689796 79.27375 -21.884464 99.49065 -54.590576 107.19238C -108.25635 118.78728 -163.86209 98.49255 -211 74C -207.48416 72.82806 -205.85905 73.22243 -202.25 73.92578C -201.09515 74.144684 -199.94032 74.36358 -198.75049 74.58911C -197.51283 74.82783 -196.27516 75.06655 -195 75.3125C -164.70284 80.855225 -132.40744 83.39195 -102 77C -100.881096 76.78344 -99.762184 76.56687 -98.609375 76.34375C -78.670105 71.9592 -59.788445 61.89779 -47.46875 45.335938C -41.290215 35.509434 -40.17062 25.361395 -41 14C -43.086765 5.0907035 -47.298058 -1.7884445 -54 -8C -54.70125 -8.66 -55.4025 -9.32 -56.125 -10C -67.39545 -17.840313 -79.65327 -19.114876 -93 -20C -92.67 -20.66 -92.34 -21.32 -92 -22C -61.460297 -28.74815 -24.00799 -19.748508 0 0z"
      stroke="none" fill="#77359C" fill-rule="nonzero" />
    <path transform="matrix(1 0 0 1 581 503)"
      d="M0 0C 2.3097317 3.4645977 3.6757221 7.064669 5.125 10.9375C 5.4021482 11.653574 5.679297 12.369648 5.9648438 13.107422C 7.2947726 16.641888 8 19.179852 8 23C 2.72 23 -2.56 23 -8 23C -1.75 1.75 -1.75 1.75 0 0z"
      stroke="none" fill="none" fill-rule="nonzero" />
  </g>
</svg>